<?xml version="1.0" encoding="UTF-8"?>
<svg id="Livello_2" data-name="Livello 2" xmlns="http://www.w3.org/2000/svg" viewBox="0 0 140.9 108.96">
  <defs>
    <style>
      .cls-1 {
        fill: #fff;
      }
    </style>
  </defs>
  <g id="Livello_1-2" data-name="Livello 1">
    <path class="cls-1" d="M104.77,58.53h0c-7.04-11.4-18.47-19.25-32.24-19.01-5.32.09-10.18,1.4-15.26,3.62l-.47-23.06c5.11-.85,8.93-5.09,8.84-10.14C65.55,4.36,61.18-.1,55.59,0c-5.59.1-10.45,4.72-10.36,10.31.08,4.83,3.81,8.8,7.67,9.74l.44,25.29c0,.2-.09.41-.4.62l-14.07-17.99c1.97-1.88,3.32-4.55,3.27-7.49-.1-5.59-4.64-10.04-10.23-9.94-5.59.1-10.01,4.71-9.91,10.3.1,5.59,4.72,10.04,10.31,9.94,1.35-.02,2.65-.32,3.82-.82l14.53,18.22c-1.04.91-2.03,1.89-2.96,2.92l-23.35-7.92c.36-1.07.56-2.22.54-3.42-.1-5.59-4.71-10.04-10.3-9.94-5.59.1-10.04,4.71-9.94,10.3.1,5.59,4.71,10.04,10.3,9.94,3.08-.05,5.82-1.49,7.63-3.69l22.72,7.7c-.93,1.3-1.78,2.66-2.52,4.09l-22.87,3.32c-1.16-4.4-5.2-7.62-9.95-7.53C4.36,54.04-.1,58.65,0,64.24c.1,5.59,4.71,10.04,10.3,9.94,5.19-.09,9.4-4.08,9.89-9.12l20.84-3.03c-1.52,4.01-2.33,8.37-2.25,12.92.33,19.21,16.13,34.34,35.34,34,6.83-.12,13.34-1.64,18.43-5.89h.04s48.3-15.25,48.3-15.25l-36.13-29.29ZM83.77,78.92c-6.81.12-12.43-5.31-12.55-12.12-.12-6.81,5.31-12.43,12.12-12.55,6.81-.12,12.43,5.31,12.55,12.12.12,6.81-5.31,12.43-12.12,12.55ZM108.36,73.74c-.02-1.08-.09-2.15-.21-3.2l20.25,14.57-25.28,7.6c3.42-5.5,5.36-12.01,5.24-18.97Z"/>
  </g>
</svg>