<?xml version="1.0" encoding="UTF-8"?>
<svg id="Livello_2" data-name="Livello 2" xmlns="http://www.w3.org/2000/svg" viewBox="0 0 1050.61 256.24">
  <g id="Livello_1-2" data-name="Livello 1">
    <path d="M728.64,125.72c4.87-21.43,15.34-40.81,29.77-56.97-10.15-32.99-37.56-56.16-75.99-64.9C671.12,1.28,658.85-.05,645.81,0c-45.99.17-89.83,17.28-122.21,46.1-1.97,1.75-3.89,3.54-5.77,5.38-2.03,1.98-4.01,4.01-5.93,6.09-13.53,14.62-24.37,31.59-31.59,50.4-1.17,3.05-2.24,6.15-3.22,9.29-.87,2.79-1.66,5.61-2.37,8.47-.24.96-.48,1.93-.7,2.9-2.8,12.34-3.81,24.02-3.23,34.96.08,1.49.17,2.97.31,4.43.14,1.49.32,2.97.53,4.43,2.56,18.38,9.94,34.33,21.26,47.24,1.32,1.5,2.67,2.98,4.1,4.4,1.52,1.52,3.12,2.97,4.76,4.39,13.02,11.28,29.67,19.46,49.19,23.89,11.3,2.57,23.57,3.89,36.62,3.84,58.22-.21,113.02-27.58,145.45-71.51-7.75-17.15-9.28-37.31-4.35-59.01ZM679.22,127.89c-7.85,34.54-38.73,62.1-76.64,62.24-5.42.02-10.44-.52-15.05-1.57-27.59-6.27-40.12-30.62-33.39-60.22,7.85-34.54,38.72-62.11,76.64-62.24,5.42-.02,10.44.52,15.05,1.57,27.59,6.27,40.12,30.62,33.39,60.22Z"/>
    <polygon points="192.91 28.92 176.1 102.85 97.3 103.13 114.11 29.2 47.51 29.44 0 238.39 66.6 238.15 84.76 158.27 163.56 157.98 145.4 237.86 212 237.62 259.51 28.68 192.91 28.92"/>
    <polygon points="341.01 109.06 268.82 109.32 259.07 152.19 331.26 151.93 341.01 109.06"/>
    <path d="M462.7,172.57l-49.71.59,53.76-52.06c8.2-30.81,25.46-58.1,48.8-79.62l.35-1.56-148.51.54-10.84,47.66,72.4-.26-92.78,89.9-9.85,43.33,155.22-1.3c-1.35-1.8-2.66-3.64-3.89-5.54-8.01-12.42-13-26.48-14.96-41.7Z"/>
    <polygon points="995.48 44.8 979.11 147.35 1020.85 147.2 1050.61 44.6 995.48 44.8"/>
    <path d="M1003.22,159.15c-1.82-.41-3.76-.63-5.8-.62-14.94.05-30.04,12.09-33.26,26.29-2.74,12.05,4.08,22.6,15.61,25.23,1.82.41,3.76.63,5.8.62,14.94-.05,30.04-12.09,33.21-26.05,2.79-12.26-4.02-22.85-15.56-25.47Z"/>
    <path d="M897.68,31.65c-8.7-1.98-18.14-2.99-28.18-2.96-38.92.14-75.84,16.05-101.23,42.38-1.24,1.29-2.46,2.6-3.64,3.93-1.25,1.41-2.46,2.85-3.65,4.31-11.3,13.95-19.58,30.28-23.69,48.38-4.12,18.1-3.25,34.4,1.72,48.3.6,1.69,1.27,3.34,2,4.96.7,1.55,1.45,3.07,2.26,4.55,10.15,18.72,28.78,31.88,53.22,37.43,8.7,1.98,18.14,2.99,28.18,2.96,61.96-.22,118.89-40.41,132.21-98.99,11.16-49.09-14.22-85.02-59.19-95.24ZM895.21,127.11c-6.04,26.58-29.8,47.79-58.98,47.9-4.17.02-8.04-.4-11.58-1.21-21.23-4.83-30.87-23.57-25.7-46.34,6.04-26.58,29.8-47.79,58.98-47.9,4.17-.02,8.04.4,11.58,1.21,21.23,4.83,30.88,23.57,25.7,46.34Z"/>
  </g>
</svg>